<svg xmlns="http://www.w3.org/2000/svg" width="700" height="700" viewBox="0 0 700 700" role="img" aria-labelledby="title desc">
  <title id="title">VelofiTech</title>
  <desc id="desc">VelofiTech logo sign with road, data bars and tagline</desc>
  <defs>
    <linearGradient id="wall" x1="0" x2="1" y1="0" y2="1">
      <stop offset="0" stop-color="#7d7c78"/>
      <stop offset="0.48" stop-color="#555450"/>
      <stop offset="1" stop-color="#85847e"/>
    </linearGradient>
    <linearGradient id="blueText" x1="0" x2="1" y1="0" y2="0">
      <stop offset="0" stop-color="#0b3a83"/>
      <stop offset="0.5" stop-color="#1fb6ee"/>
      <stop offset="1" stop-color="#08306c"/>
    </linearGradient>
    <linearGradient id="blueIcon" x1="0" x2="1" y1="0" y2="1">
      <stop offset="0" stop-color="#27c3f3"/>
      <stop offset="0.5" stop-color="#0c67b1"/>
      <stop offset="1" stop-color="#042a64"/>
    </linearGradient>
    <linearGradient id="orange" x1="0" x2="1" y1="0" y2="1">
      <stop offset="0" stop-color="#ffbd59"/>
      <stop offset="1" stop-color="#d96628"/>
    </linearGradient>
    <filter id="shadow" x="-25%" y="-25%" width="150%" height="150%">
      <feDropShadow dx="8" dy="13" stdDeviation="7" flood-color="#0b0f12" flood-opacity="0.42"/>
    </filter>
  </defs>

  <rect width="700" height="700" rx="10" fill="url(#wall)"/>
  <rect x="0" y="0" width="700" height="86" fill="#ecefeb" opacity="0.72"/>
  <rect x="250" y="10" width="154" height="14" rx="4" fill="#fff9e5" opacity="0.85"/>
  <rect x="500" y="13" width="88" height="13" rx="4" fill="#fff9e5" opacity="0.8"/>

  <g filter="url(#shadow)">
    <g transform="translate(160 126)">
      <path d="M65 99c70 89 136 115 202 78 46-25 86-73 143-91-51 34-91 80-144 118-78 57-162 42-234-55l33-50Z" fill="url(#blueIcon)"/>
      <path d="M245 201c52-75 104-114 186-138-71 43-117 95-159 160l-27-22Z" fill="#0f5f9d"/>
      <path d="M284 220c40-63 90-104 151-128-42 37-78 85-111 145l36-2-73 61-14-76Z" fill="url(#orange)"/>
      <path d="M262 183c37-55 79-87 138-106-52 38-88 78-122 127l-16-21Z" fill="#eff9ff"/>
      <path d="M292 155l15-11 19 14-17 12-17-15Zm47-37 17-10 17 12-17 10-17-12Zm51-27 16-8 15 9-16 9-15-10Z" fill="#ffffff"/>

      <rect x="225" y="99" width="24" height="82" rx="4" fill="#145ba2"/>
      <rect x="264" y="71" width="25" height="105" rx="4" fill="#168fd4"/>
      <rect x="305" y="44" width="27" height="123" rx="4" fill="#75d7f2"/>
      <rect x="350" y="17" width="28" height="143" rx="4" fill="#0d7ec2"/>
      <rect x="416" y="79" width="20" height="20" fill="#ec8c37"/>
      <rect x="456" y="51" width="20" height="20" fill="#df7330"/>
      <rect x="494" y="84" width="20" height="20" fill="#f4a04a"/>

      <rect x="0" y="69" width="34" height="34" rx="6" transform="rotate(-25 17 86)" fill="#135ca7"/>
      <rect x="47" y="43" width="34" height="34" rx="6" transform="rotate(-25 64 60)" fill="#179ee0"/>
      <rect x="96" y="68" width="34" height="34" rx="6" transform="rotate(-25 113 85)" fill="#61cbef"/>
      <rect x="28" y="126" width="29" height="29" rx="6" transform="rotate(-25 42.5 140.5)" fill="#0d4f96"/>
      <rect x="82" y="118" width="29" height="29" rx="6" transform="rotate(-25 96.5 132.5)" fill="#1685cc"/>
    </g>

    <text x="34" y="526" font-family="Arial Black, Inter, Arial, sans-serif" font-size="104" font-weight="900" letter-spacing="-4">
      <tspan fill="url(#blueText)">Velofi</tspan><tspan fill="url(#orange)">Tech</tspan>
    </text>

    <rect x="48" y="568" width="604" height="44" rx="3" fill="#e8ecef" stroke="#b8c1c8" stroke-width="2"/>
    <path d="M69 591h78M553 591h78" stroke="#1e252b" stroke-width="6"/>
    <text x="164" y="599" font-family="Inter, Arial, sans-serif" font-size="26" font-weight="900" fill="#252b31" letter-spacing="-0.6">DRIVEN BY DATA, POWERED BY INNOVATION</text>
  </g>
</svg>
